<?xml version="1.0" encoding="UTF-8" standalone="no"?>
<!DOCTYPE svg PUBLIC "-//W3C//DTD SVG 1.1//EN" "http://www.w3.org/Graphics/SVG/1.1/DTD/svg11.dtd">

<!--Här säger vi att vi har en svg som har höjd och beredd på 100%.-->

<svg width="100%" height="100%" viewBox="0 0 800 600" version="1.1" xmlns="http://www.w3.org/2000/svg" xmlns:xlink="http://www.w3.org/1999/xlink" xml:space="preserve" xmlns:serif="http://www.serif.com/" style="fill-rule:evenodd;clip-rule:evenodd;stroke-linejoin:round;stroke-miterlimit:2;">
 
  <!--Här ser vi några tag som börjar med bokstaven 'g' som står för grupp av elemnt. Varje grupp har ett unikt ID.-->  

  <g id="XMLID_1864_" transform="matrix(0.67409,0,0,0.612457,224.634,138.299)">
      
      <!--Path är en av de effektiva element som finns i SVG. Med hjälp av den kan man rita linjer, kurvor, bågar och mer. i Pathen som vi har här under så ser vi bokstaven d som 
	är ett attribut som innehåller en serie sökkommandon som definierar sökvägen som ska ritas. Svg är funkar som kordinat system där x =0 och y =0 är placerad längst upp  till vänster i själva html sidan. För att fi ska börja rita
	så ser vi bokstaven M som står för move to, då flyttas själva ritningen till punkten x= 501 y=115 osv. Vi har en lång rad av dessa punkter och i slutet av de för de stil med färg och sånt där allting översättas till Vector bild i slutet.-->
   
     <path d="M501.634,487.318L409.45,78.027L409.306,78.06C401.47,91.878 386.638,101.208 369.62,101.208C240.68,101.209 132.704,192.624 107.062,314.044L105.501,363.052L124.53,363.052C144.121,363.052 160.004,378.934 160.004,398.525L160.004,479.436C160.004,491.898 170.107,502.001 182.568,502.001C195.031,502.001 205.133,491.898 205.133,479.436L205.133,466.751C205.133,458.226 212.045,451.315 220.57,451.315C225.971,451.315 230.725,448.54 233.484,444.338L233.481,444.336L487.32,501.626C495.898,503.562 503.566,495.897 501.634,487.318Z" style="fill:rgb(255,230,192);fill-rule:nonzero;"/>
    </g>
    <g id="XMLID_1722_" transform="matrix(0.67409,0,0,0.612457,224.637,138.3)">
        <path d="M115.378,115.311C148.384,82.304 186.831,56.386 229.651,38.275C274.009,19.514 321.102,10 369.62,10C394.807,10 415.224,30.417 415.224,55.604C415.224,80.789 394.806,101.208 369.62,101.208C221.653,101.209 101.275,221.588 101.274,369.554C101.274,394.739 80.856,415.158 55.67,415.158C30.483,415.158 10.066,394.741 10.066,369.554C10.066,321.035 19.58,273.942 38.341,229.585C56.453,186.765 82.371,148.317 115.378,115.311Z" style="fill:rgb(255,203,124);fill-rule:nonzero;"/>
    </g>
    <g id="XMLID_1836_" transform="matrix(0.67409,0,0,0.612457,224.634,138.299)">
        <path d="M124.531,363.051L105.502,363.051L101.256,370.238C101.01,386.912 91.819,401.41 78.264,409.161L78.189,409.288L160,427.752L160.005,427.752L160.005,398.524C160.005,378.933 144.123,363.051 124.531,363.051Z" style="fill:rgb(255,203,124);fill-rule:nonzero;"/>
    </g>
    <g id="XMLID_1247_" transform="matrix(0.67409,0,0,0.612457,224.634,138.299)">
        <circle cx="254.347" cy="254.325" r="59.343" style="fill:rgb(245,115,127);"/>
    </g>
    <g id="XMLID_1240_" transform="matrix(0.67409,0,0,0.612457,224.634,138.299)">
        <path d="M468.124,338.531C457.674,347.719 443.966,353.291 428.957,353.291C396.182,353.291 369.613,326.722 369.613,293.948C369.613,261.174 396.182,234.606 428.957,234.606C434.598,234.606 440.055,235.393 445.224,236.863L468.124,338.531Z" style="fill:rgb(245,115,127);fill-rule:nonzero;"/>
    </g>
    <g id="XMLID_1999_" transform="matrix(0.67409,0,0,0.612457,224.634,138.299)">
        <path d="M384.141,174.193L365.472,192.862C362.674,195.66 358.138,195.66 355.34,192.862L336.671,174.193C333.873,171.395 333.873,166.859 336.671,164.061L355.34,145.392C358.138,142.594 362.674,142.594 365.472,145.392L384.141,164.061C386.939,166.858 386.939,171.395 384.141,174.193Z" style="fill:rgb(216,236,132);fill-rule:nonzero;"/>
    </g>
    <g id="XMLID_1998_" transform="matrix(0.67409,0,0,0.612457,224.634,138.299)">
        <path d="M448.016,415.246L448.016,441.007C448.016,444.868 444.886,447.998 441.025,447.998L415.264,447.998C411.403,447.998 408.273,444.868 408.273,441.007L408.273,415.246C408.273,411.385 411.403,408.255 415.264,408.255L441.025,408.255C444.886,408.255 448.016,411.385 448.016,415.246Z" style="fill:rgb(216,236,132);fill-rule:nonzero;"/>
    </g>
    <g id="XMLID_889_" transform="matrix(0.67409,0,0,0.612457,224.634,138.299)">
        <path d="M239.157,445.62C237.115,439.62 236.008,433.187 236.008,426.495C236.008,393.721 262.577,367.152 295.351,367.152C328.125,367.152 354.695,393.721 354.695,426.495C354.695,442.599 348.28,457.205 337.867,467.896L239.157,445.62Z" style="fill:rgb(245,115,127);fill-rule:nonzero;"/>
    </g>
    <g id="XMLID_339_" transform="matrix(0.67409,0,0,0.612457,224.634,138.299)">
        <path d="M254.346,184.983C216.111,184.983 185.004,216.09 185.004,254.325C185.004,292.561 216.11,323.668 254.346,323.668C292.583,323.668 323.69,292.561 323.69,254.325C323.69,216.09 292.582,184.983 254.346,184.983ZM254.346,303.667C227.139,303.667 205.004,281.533 205.004,254.325C205.004,227.118 227.139,204.983 254.346,204.983C281.555,204.983 303.689,227.118 303.689,254.325C303.689,281.533 281.555,303.667 254.346,303.667Z" style="fill-rule:nonzero;"/>
    </g>
    <g id="XMLID_340_" transform="matrix(0.67409,0,0,0.612457,224.634,138.299)">
        <path d="M272.691,226.828C270.061,226.828 267.481,227.898 265.622,229.758C263.762,231.618 262.691,234.199 262.691,236.829C262.691,239.459 263.761,242.039 265.622,243.899C267.481,245.759 270.061,246.829 272.691,246.829C275.321,246.829 277.901,245.759 279.761,243.899C281.622,242.039 282.692,239.459 282.692,236.829C282.692,234.199 281.623,231.618 279.761,229.758C277.9,227.898 275.321,226.828 272.691,226.828Z" style="fill-rule:nonzero;"/>
    </g>
    <g id="XMLID_341_" transform="matrix(0.67409,0,0,0.612457,224.634,138.299)">
        <path d="M231.63,236.56C228.989,236.56 226.409,237.63 224.559,239.49C222.689,241.36 221.62,243.93 221.62,246.57C221.62,249.2 222.689,251.77 224.559,253.64C226.41,255.5 228.99,256.571 231.63,256.571C234.26,256.571 236.83,255.5 238.7,253.64C240.559,251.77 241.63,249.19 241.63,246.57C241.63,243.94 240.56,241.36 238.7,239.49C236.83,237.63 234.26,236.56 231.63,236.56Z" style="fill-rule:nonzero;"/>
    </g>
    <g id="XMLID_342_" transform="matrix(0.67409,0,0,0.612457,224.634,138.299)">
        <path d="M260.591,267.261C257.951,267.261 255.38,268.331 253.52,270.191C251.65,272.051 250.59,274.631 250.59,277.261C250.59,279.891 251.65,282.472 253.52,284.332C255.38,286.192 257.952,287.262 260.591,287.262C263.221,287.262 265.791,286.192 267.661,284.332C269.52,282.472 270.591,279.891 270.591,277.261C270.591,274.631 269.521,272.051 267.661,270.191C265.791,268.33 263.221,267.261 260.591,267.261Z" style="fill-rule:nonzero;"/>
    </g>
    <g id="XMLID_792_" transform="matrix(0.67409,0,0,0.612457,224.634,138.299)">
        <path d="M406.237,276.191C403.607,276.191 401.026,277.251 399.167,279.111C397.307,280.982 396.236,283.562 396.236,286.192C396.236,288.822 397.306,291.402 399.167,293.262C401.026,295.122 403.607,296.192 406.237,296.192C408.867,296.192 411.447,295.122 413.307,293.262C415.167,291.402 416.237,288.822 416.237,286.192C416.237,283.562 415.168,280.982 413.307,279.111C411.447,277.251 408.867,276.191 406.237,276.191Z" style="fill-rule:nonzero;"/>
    </g>
    <g id="XMLID_890_" transform="matrix(0.67409,0,0,0.612457,224.634,138.299)">
        <path d="M425.197,316.883C425.197,319.513 426.267,322.093 428.129,323.953C429.988,325.813 432.559,326.883 435.198,326.883C437.828,326.883 440.408,325.813 442.268,323.953C444.128,322.093 445.198,319.523 445.198,316.883C445.198,314.253 444.129,311.673 442.268,309.813C440.408,307.953 437.828,306.883 435.198,306.883C432.568,306.883 429.988,307.953 428.129,309.813C426.267,311.673 425.197,314.253 425.197,316.883Z" style="fill-rule:nonzero;"/>
    </g>
    <g id="XMLID_925_" transform="matrix(0.67409,0,0,0.612457,224.634,138.299)">
        <path d="M372.544,199.932L391.212,181.264C397.904,174.571 397.904,163.682 391.212,156.989L372.544,138.321C365.851,131.628 354.962,131.627 348.268,138.321L329.602,156.987C326.358,160.23 324.573,164.541 324.573,169.126C324.573,173.712 326.358,178.022 329.601,181.263L348.268,199.932C351.51,203.174 355.822,204.959 360.407,204.959C364.992,204.959 369.302,203.174 372.544,199.932ZM345.749,169.127L360.407,154.468L375.064,169.127L360.407,183.786L345.749,169.127Z" style="fill-rule:nonzero;"/>
    </g>
    <g id="XMLID_938_" transform="matrix(0.67409,0,0,0.612457,224.634,138.299)">
        <path d="M441.025,398.254L415.264,398.254C405.895,398.254 398.272,405.877 398.272,415.246L398.272,441.007C398.272,450.376 405.895,457.999 415.264,457.999L441.025,457.999C450.394,457.999 458.017,450.376 458.017,441.007L458.017,415.246C458.017,405.877 450.394,398.254 441.025,398.254ZM438.016,437.997L418.273,437.997L418.273,418.254L438.016,418.254L438.016,437.997Z" style="fill-rule:nonzero;"/>
    </g>
    <g id="XMLID_940_" transform="matrix(0.67409,0,0,0.612457,224.634,138.299)">
        <path d="M334.574,324.553C331.944,324.553 329.364,325.623 327.504,327.483C325.644,329.344 324.573,331.914 324.573,334.554C324.573,337.184 325.643,339.764 327.504,341.624C329.364,343.484 331.944,344.554 334.574,344.554C337.205,344.554 339.784,343.484 341.644,341.624C343.504,339.764 344.574,337.184 344.574,334.554C344.574,331.924 343.505,329.344 341.644,327.483C339.784,325.622 337.205,324.553 334.574,324.553Z" style="fill-rule:nonzero;"/>
    </g>
    <g id="XMLID_941_" transform="matrix(0.67409,0,0,0.612457,224.634,138.299)">
        <path d="M201.688,343.294C199.058,343.294 196.478,344.354 194.619,346.224C192.759,348.084 191.688,350.664 191.688,353.294C191.688,355.925 192.758,358.505 194.619,360.365C196.478,362.225 199.058,363.295 201.688,363.295C204.318,363.295 206.898,362.225 208.759,360.365C210.619,358.505 211.689,355.925 211.689,353.294C211.689,350.664 210.62,348.084 208.759,346.224C206.898,344.353 204.318,343.294 201.688,343.294Z" style="fill-rule:nonzero;"/>
    </g>
    <g id="XMLID_957_" transform="matrix(0.67409,0,0,0.612457,224.637,138.3)">
        <path d="M82.442,237.376C77.354,235.223 71.487,237.604 69.337,242.69C52.336,282.885 43.717,325.572 43.717,369.568C43.717,375.091 48.195,379.569 53.717,379.569C59.239,379.569 63.718,375.091 63.718,369.568C63.718,328.264 71.806,288.198 87.758,250.481C89.908,245.395 87.53,239.528 82.442,237.376Z" style="fill-rule:nonzero;"/>
    </g>
    <g id="XMLID_1033_" transform="matrix(0.67409,0,0,0.612457,224.634,138.299)">
        <path d="M255.891,74.555C253.741,69.469 247.872,67.088 242.786,69.241C203.973,85.658 169.117,109.157 139.184,139.089C135.279,142.994 135.279,149.326 139.184,153.231C141.137,155.184 143.696,156.16 146.255,156.16C148.814,156.16 151.373,155.183 153.326,153.231C181.428,125.13 214.148,103.069 250.576,87.662C255.663,85.51 258.043,79.642 255.891,74.555Z" style="fill-rule:nonzero;"/>
    </g>
    <g id="XMLID_1244_" transform="matrix(0.67409,0,0,0.612457,224.634,138.299)">
        <path d="M313.693,398.995C311.063,398.995 308.483,400.065 306.624,401.925C304.764,403.796 303.692,406.366 303.692,408.996C303.692,411.636 304.763,414.206 306.624,416.076C308.483,417.936 311.063,419.006 313.693,419.006C316.323,419.006 318.903,417.936 320.763,416.076C322.633,414.206 323.693,411.636 323.693,408.996C323.693,406.366 322.633,403.796 320.763,401.925C318.903,400.066 316.323,398.995 313.693,398.995Z" style="fill-rule:nonzero;"/>
    </g>
    <g id="XMLID_1543_" transform="matrix(0.67409,0,0,0.612457,224.634,138.299)">
        <path d="M272.631,408.737C270.001,408.737 267.421,409.797 265.561,411.667C263.702,413.527 262.631,416.107 262.631,418.737C262.631,421.367 263.701,423.947 265.561,425.807C267.421,427.668 270.001,428.738 272.631,428.738C275.261,428.738 277.841,427.668 279.701,425.807C281.561,423.937 282.632,421.367 282.632,418.737C282.632,416.107 281.562,413.527 279.701,411.667C277.841,409.797 275.261,408.737 272.631,408.737Z" style="fill-rule:nonzero;"/>
    </g>
    <g id="XMLID_1990_" transform="matrix(0.67409,0,0,0.612457,231.377,144.424)">
        <path d="M511.389,485.121L477.888,336.375C477.878,336.331 477.868,336.287 477.858,336.243L454.995,234.73C454.988,234.699 454.981,234.669 454.974,234.638L419.961,79.184C423.33,72.02 425.224,64.031 425.224,55.603C425.224,24.944 400.281,0 369.621,0C319.757,0 271.353,9.778 225.757,29.064C181.745,47.679 142.231,74.317 108.307,108.238C74.384,142.162 47.746,181.677 29.131,225.689C9.845,271.286 0.067,319.689 0.067,369.554C0.067,400.214 25.01,425.158 55.671,425.158C64.165,425.158 72.215,423.237 79.422,419.818L150.005,435.748L150.005,479.436C150.005,497.392 164.614,512.001 182.57,512.001C200.527,512.001 215.136,497.392 215.136,479.436L215.136,466.751C215.136,463.754 217.574,461.315 220.572,461.315C226.651,461.315 232.409,459.168 236.929,455.366L485.118,511.38C492.511,513.047 500.128,510.846 505.488,505.488C510.849,500.129 513.054,492.515 511.389,485.121ZM456.975,334.554C448.777,340.214 439.024,343.291 428.957,343.291C401.748,343.291 379.614,321.156 379.614,293.949C379.614,266.742 401.748,244.606 428.957,244.606C431.617,244.606 434.258,244.824 436.859,245.242L456.975,334.554ZM99.409,403.825C106.156,395.232 110.431,384.619 111.153,373.051L124.531,373.051C138.577,373.051 150.004,384.479 150.004,398.524L150.004,415.244L99.409,403.825ZM246.008,426.496C246.008,399.288 268.143,377.153 295.351,377.153C322.558,377.153 344.693,399.288 344.693,426.496C344.693,437.609 341.016,448.191 334.262,456.829L247.174,437.174C246.405,433.687 246.008,430.114 246.008,426.496ZM491.348,491.341C490.997,491.691 490.397,492.069 489.521,491.869L355.205,461.555C361.392,451.025 364.694,438.996 364.694,426.495C364.694,388.259 333.588,357.152 295.351,357.152C257.115,357.152 226.007,388.259 226.007,426.495C226.007,430.001 226.28,433.477 226.797,436.908C226.136,437.503 225.545,438.185 225.054,438.955C224.033,440.434 222.367,441.313 220.572,441.313C206.546,441.313 195.135,452.724 195.135,466.75L195.135,479.435C195.135,486.363 189.498,491.999 182.57,491.999C175.643,491.999 170.006,486.363 170.006,479.435L170.006,398.524C170.006,373.45 149.607,353.05 124.532,353.05L111.804,353.05C114.825,305.137 130.984,259.471 159.011,220.096C162.213,215.596 161.161,209.353 156.661,206.149C152.162,202.946 145.919,203.998 142.715,208.498C109.063,255.776 91.275,311.469 91.275,369.553C91.275,389.185 75.303,405.157 55.671,405.157C36.039,405.157 20.068,389.185 20.068,369.553C20.068,322.38 29.315,276.598 47.552,233.481C65.158,191.853 90.358,154.474 122.45,122.382C154.542,90.29 191.921,65.091 233.549,47.485C276.665,29.248 322.448,20.001 369.621,20.001C389.253,20.001 405.225,35.972 405.225,55.604C405.225,75.236 389.253,91.208 369.621,91.208C311.5,91.208 255.778,109.016 208.483,142.708C203.984,145.913 202.934,152.157 206.139,156.655C209.344,161.154 215.588,162.203 220.086,158.999C263.975,127.734 315.683,111.21 369.62,111.209C382.584,111.209 394.516,106.736 403.983,99.271L432.231,224.692C431.142,224.641 430.051,224.606 428.957,224.606C390.721,224.606 359.613,255.713 359.613,293.95C359.613,332.186 390.72,363.293 428.957,363.293C440.438,363.293 451.635,360.447 461.607,355.123L491.876,489.516C492.074,490.391 491.698,490.992 491.348,491.341Z" style="fill-rule:nonzero;"/>
    </g>
    <g id="XMLID_1994_" transform="matrix(0.67409,0,0,0.612457,224.634,138.299)">
        <path d="M189.938,179.917C189.938,177.287 188.869,174.707 187.008,172.847C185.148,170.987 182.567,169.917 179.937,169.917C177.307,169.917 174.727,170.987 172.868,172.847C171.008,174.707 169.937,177.287 169.937,179.917C169.937,182.547 171.007,185.128 172.868,186.988C174.727,188.848 177.307,189.918 179.937,189.918C182.567,189.918 185.138,188.848 187.008,186.988C188.869,185.128 189.938,182.547 189.938,179.917Z" style="fill-rule:nonzero;"/>
    </g>
    <g transform="matrix(2.8546,0,0,3.29538,-365.975,-316.76)">
        <text x="160.691px" y="135.97px" style="font-family:'BerlinSansFB-Bold', 'Berlin Sans FB', sans-serif;font-weight:700;font-size:48px;fill:rgb(0,255,96);">PIZ</text>
        <text x="236.113px" y="135.97px" style="font-family:'BerlinSansFB-Bold', 'Berlin Sans FB', sans-serif;font-weight:700;font-size:48px;fill:rgb(252,249,249);">ZE</text>
        <text x="290.113px" y="135.97px" style="font-family:'BerlinSansFB-Bold', 'Berlin Sans FB', sans-serif;font-weight:700;font-size:48px;fill:rgb(255,8,0);">RIA</text>
    </g>
    <g transform="matrix(3.37825,0,0,3.42794,-794.544,-536.734)">
        <text x="262.831px" y="326.587px" style="font-family:'BerlinSansFB-Bold', 'Berlin Sans FB', sans-serif;font-weight:700;font-size:48px;fill:rgb(255,200,2);">CAMPUS</text>
    </g>
</svg>
